<svg width="38" height="38" viewBox="0 0 38 38" fill="none" xmlns="http://www.w3.org/2000/svg">
<rect width="37.5" height="37.5" rx="18.75" fill="white"/>
<path d="M9.375 11.2503V26.0709C9.375 28.1975 9.375 29.2607 9.69394 29.9114C10.2851 31.1174 11.5806 31.8106 12.912 31.6334C13.6303 31.5378 14.5151 30.948 16.2845 29.7684L16.2888 29.7655C16.9901 29.298 17.3409 29.0642 17.7077 28.9345C18.3816 28.6963 19.1168 28.6963 19.7906 28.9345C20.1583 29.0644 20.5104 29.2991 21.2146 29.7686C22.984 30.9483 23.8698 31.5376 24.5881 31.6332C25.9195 31.8103 27.215 31.1174 27.8061 29.9114C28.125 29.2607 28.125 28.1972 28.125 26.0709V11.2452C28.125 9.49843 28.125 8.62375 27.7847 7.95593C27.4851 7.36793 27.0058 6.89021 26.4178 6.5906C25.7493 6.25 24.8755 6.25 23.1253 6.25H14.3753C12.6251 6.25 11.7494 6.25 11.0809 6.5906C10.4929 6.89021 10.0152 7.36793 9.7156 7.95593C9.375 8.62441 9.375 9.50014 9.375 11.2503Z" fill="black" stroke="black" stroke-width="2" stroke-linecap="round" stroke-linejoin="round"/>
</svg>
