<svg width="128" height="128" viewBox="0 0 128 128" fill="none" xmlns="http://www.w3.org/2000/svg">
<path d="M17.2883 44.9907C16.9366 43.9436 17.5004 42.8096 18.5475 42.458L61.6601 27.9782C62.7072 27.6266 63.8411 28.1903 64.1928 29.2374L83.0834 85.4832C83.4351 86.5303 82.8713 87.6642 81.8242 88.0159L38.7117 102.496C37.6646 102.847 36.5306 102.284 36.179 101.236L17.2883 44.9907Z" fill="black"/>
<path d="M12.3406 42.5168C11.9889 41.4697 12.5526 40.3358 13.5997 39.9841L56.7123 25.5044C57.7594 25.1527 58.8933 25.7164 59.245 26.7635L78.1357 83.0094C78.4873 84.0564 77.9236 85.1904 76.8765 85.542L33.7639 100.022C32.7168 100.373 31.5829 99.8097 31.2312 98.7626L12.3406 42.5168Z" fill="white"/>
<path fill-rule="evenodd" clip-rule="evenodd" d="M12.963 38.088L56.0756 23.6083C58.1697 22.905 60.4376 24.0325 61.1409 26.1266L80.0316 82.3725C80.7349 84.4667 79.6074 86.7345 77.5133 87.4379L34.4007 101.918C32.3065 102.621 30.0386 101.493 29.3353 99.3993L10.4446 43.1534C9.7413 41.0592 10.8688 38.7914 12.963 38.088ZM13.5997 39.984C12.5526 40.3356 11.9889 41.4696 12.3406 42.5167L31.2312 98.7625C31.5829 99.8096 32.7168 100.373 33.7639 100.022L76.8765 85.5419C77.9236 85.1903 78.4873 84.0563 78.1357 83.0092L59.245 26.7634C58.8933 25.7163 57.7594 25.1526 56.7123 25.5042L13.5997 39.984Z" fill="black"/>
<path fill-rule="evenodd" clip-rule="evenodd" d="M25.251 50.6853C25.0752 50.1617 25.3571 49.5948 25.8806 49.4189L51.5608 40.794C52.0843 40.6182 52.6513 40.9 52.8271 41.4236C53.003 41.9471 52.7211 42.5141 52.1975 42.6899L26.5174 51.3148C25.9938 51.4907 25.4269 51.2088 25.251 50.6853Z" fill="black"/>
<path fill-rule="evenodd" clip-rule="evenodd" d="M27.2987 56.7829C27.1229 56.2594 27.4048 55.6924 27.9283 55.5166L53.6085 46.8917C54.132 46.7158 54.699 46.9977 54.8748 47.5212C55.0507 48.0448 54.7688 48.6118 54.2453 48.7876L28.5651 57.4125C28.0415 57.5883 27.4746 57.3065 27.2987 56.7829Z" fill="black"/>
<path fill-rule="evenodd" clip-rule="evenodd" d="M29.3472 62.8807C29.1713 62.3571 29.4532 61.7902 29.9768 61.6143L55.6569 52.9894C56.1805 52.8136 56.7474 53.0955 56.9233 53.619C57.0991 54.1426 56.8172 54.7095 56.2937 54.8854L30.6135 63.5103C30.09 63.6861 29.523 63.4042 29.3472 62.8807Z" fill="black"/>
<path fill-rule="evenodd" clip-rule="evenodd" d="M31.3949 68.9782C31.2191 68.4547 31.5009 67.8877 32.0245 67.7119L57.7047 59.087C58.2282 58.9111 58.7952 59.193 58.971 59.7166C59.1468 60.2401 58.865 60.8071 58.3414 60.9829L32.6612 69.6078C32.1377 69.7836 31.5707 69.5018 31.3949 68.9782Z" fill="black"/>
<path fill-rule="evenodd" clip-rule="evenodd" d="M33.4426 75.0756C33.2668 74.5521 33.5486 73.9851 34.0722 73.8093L59.7524 65.1844C60.2759 65.0086 60.8429 65.2904 61.0187 65.814C61.1946 66.3375 60.9127 66.9045 60.3891 67.0803L34.709 75.7052C34.1854 75.8811 33.6185 75.5992 33.4426 75.0756Z" fill="black"/>
<path fill-rule="evenodd" clip-rule="evenodd" d="M47.7538 77.0462C47.93 77.5696 47.6485 78.1368 47.1251 78.313L36.7573 81.8026C36.2339 81.9788 35.6667 81.6973 35.4905 81.1739C35.3144 80.6505 35.5959 80.0833 36.1193 79.9071L46.4871 76.4175C47.0105 76.2413 47.5776 76.5228 47.7538 77.0462Z" fill="black"/>
<path d="M68.0381 29.2108C68.3291 28.1453 69.4288 27.5174 70.4944 27.8084L114.367 39.7902C115.432 40.0813 116.06 41.181 115.769 42.2465L100.137 99.4837C99.8465 100.549 98.7467 101.177 97.6812 100.886L53.8087 88.9043C52.7432 88.6133 52.1153 87.5136 52.4063 86.448L68.0381 29.2108Z" fill="white"/>
<path fill-rule="evenodd" clip-rule="evenodd" d="M71.0213 25.879L114.894 37.8609C117.025 38.4429 118.281 40.6423 117.699 42.7734L102.067 100.011C101.485 102.142 99.2854 103.397 97.1543 102.815L53.2818 90.8336C51.1507 90.2516 49.895 88.0522 50.477 85.9211L66.1088 28.6839C66.6908 26.5528 68.8902 25.297 71.0213 25.879ZM70.4944 27.8084C69.4289 27.5174 68.3291 28.1452 68.0381 29.2108L52.4063 86.448C52.1153 87.5135 52.7432 88.6132 53.8087 88.9043L97.6812 100.886C98.7468 101.177 99.8465 100.549 100.137 99.4837L115.769 42.2465C116.06 41.1809 115.432 40.0812 114.367 39.7902L70.4944 27.8084Z" fill="black"/>
<path fill-rule="evenodd" clip-rule="evenodd" d="M89.4384 79.1384C89.8247 79.2478 90.1082 79.5775 90.1583 79.9759L91.3933 89.797C91.4622 90.345 91.0739 90.8451 90.5259 90.914C89.9779 90.9829 89.4778 90.5945 89.4089 90.0465L88.4683 82.5662L83.6982 88.5045C83.3523 88.9351 82.7229 89.0037 82.2923 88.6579C81.8617 88.312 81.7931 87.6826 82.1389 87.252L88.3865 79.4744C88.6379 79.1614 89.0521 79.0291 89.4384 79.1384Z" fill="black"/>
<path fill-rule="evenodd" clip-rule="evenodd" d="M84.7377 84.4063C84.8833 83.8735 85.4331 83.5596 85.9659 83.7051L90.1388 84.8448C90.6716 84.9903 90.9856 85.5401 90.8401 86.0729C90.6946 86.6057 90.1447 86.9196 89.6119 86.7741L85.439 85.6344C84.9062 85.4889 84.5922 84.9391 84.7377 84.4063Z" fill="black"/>
<path fill-rule="evenodd" clip-rule="evenodd" d="M95.4352 84.513C95.968 84.6585 96.282 85.2083 96.1365 85.7411L95.3505 88.619C95.205 89.1518 94.6551 89.4657 94.1223 89.3202C93.5896 89.1747 93.2756 88.6249 93.4211 88.0921L94.2071 85.2142C94.3526 84.6814 94.9025 84.3675 95.4352 84.513Z" fill="black"/>
<path fill-rule="evenodd" clip-rule="evenodd" d="M97.1821 87.5728C97.0366 88.1056 96.4868 88.4195 95.954 88.274L93.0761 87.4881C92.5433 87.3426 92.2294 86.7927 92.3749 86.2599C92.5204 85.7272 93.0703 85.4132 93.603 85.5587L96.4809 86.3447C97.0137 86.4902 97.3276 87.0401 97.1821 87.5728Z" fill="black"/>
<path d="M97.182 61.0539C98.0538 60.5561 98.357 59.4459 97.8592 58.5742C97.3615 57.7024 96.2513 57.3992 95.3795 57.8969L84.6953 63.9972C83.7361 64.5449 82.5145 64.2112 81.9668 63.252L78.5471 57.2626C78.0494 56.3909 76.9392 56.0877 76.0674 56.5854C75.1957 57.0832 74.8925 58.1934 75.3902 59.0651L79.8003 66.7892C79.801 66.7904 79.8006 66.7919 79.7994 66.7926C79.7982 66.7932 79.7978 66.7948 79.7985 66.796L81.5985 69.9486C81.5992 69.9498 81.6007 69.9502 81.6019 69.9495L81.6019 69.9495C81.6031 69.9488 81.6046 69.9492 81.6053 69.9504C81.6059 69.9515 81.6074 69.9519 81.6086 69.9513L84.7613 68.1512C84.7624 68.1505 84.7628 68.1491 84.7622 68.1479C84.7615 68.1467 84.7619 68.1452 84.7631 68.1446L97.182 61.0539Z" fill="white"/>
<path fill-rule="evenodd" clip-rule="evenodd" d="M83.7037 62.2605L94.3879 56.1602C96.2189 55.1148 98.5507 55.7516 99.5961 57.5826C100.642 59.4136 100.005 61.7454 98.1737 62.7908L85.8726 69.8142C85.8339 69.8401 85.794 69.8647 85.753 69.8881L82.6002 71.6882C82.1237 71.9603 81.5825 72.0151 81.0912 71.884C80.5895 71.752 80.1392 71.4263 79.8617 70.9403L78.0617 67.7877C78.038 67.7462 78.016 67.7043 77.9955 67.6619L73.6534 60.0569C72.608 58.2259 73.2448 55.8941 75.0758 54.8487C76.9068 53.8033 79.2386 54.4401 80.284 56.2711L83.7037 62.2605ZM97.8592 58.5743C98.357 59.446 98.0538 60.5562 97.182 61.054L84.7631 68.1447C84.7619 68.1453 84.7615 68.1468 84.7622 68.148C84.7624 68.1484 84.7625 68.1489 84.7625 68.1493C84.7625 68.1501 84.762 68.1509 84.7613 68.1513L81.6086 69.9514C81.6074 69.952 81.6059 69.9516 81.6053 69.9505C81.6046 69.9493 81.6031 69.9489 81.602 69.9496L81.6019 69.9496C81.6007 69.9503 81.5992 69.9499 81.5985 69.9487L79.7985 66.7961C79.7978 66.7949 79.7982 66.7933 79.7994 66.7927C79.8006 66.792 79.801 66.7905 79.8003 66.7893L75.3902 59.0652C74.8925 58.1935 75.1957 57.0833 76.0674 56.5855C76.9392 56.0878 78.0494 56.391 78.5471 57.2627L81.9668 63.2521C82.5145 64.2113 83.7361 64.545 84.6953 63.9973L95.3795 57.897C96.2513 57.3993 97.3615 57.7025 97.8592 58.5743Z" fill="black"/>
</svg>
