<svg width="112" height="146" viewBox="0 0 112 146" fill="none" xmlns="http://www.w3.org/2000/svg">
<path d="M110.931 43.7042L109.959 43.9371L110.931 43.7041C110.87 43.4495 110.77 43.2061 110.633 42.9827L109.78 43.5043L110.633 42.9827C110.477 42.7273 110.266 42.5166 110.057 42.3073C110.041 42.2909 110.024 42.2745 110.008 42.2582L69.8731 1.99954C69.8567 1.98307 69.8403 1.96656 69.8239 1.95003C69.6144 1.73933 69.4035 1.5271 69.1474 1.36981L68.624 2.22189L69.1474 1.36981C68.9234 1.23223 68.6792 1.13082 68.4236 1.06935C68.1314 0.999058 67.8322 0.999497 67.5351 0.999932C67.5118 0.999966 67.4885 1 67.4653 1H4.4C4.38793 1 4.3759 0.999999 4.36391 0.999999C3.97482 0.999976 3.62469 0.999956 3.33337 1.02376C3.0214 1.04925 2.68993 1.10694 2.36502 1.27248C1.89462 1.51217 1.51217 1.89462 1.27248 2.36502C1.10694 2.68992 1.04925 3.0214 1.02376 3.33337C0.999956 3.62468 0.999976 3.97482 0.999999 4.36391C0.999999 4.3759 1 4.38793 1 4.39999V141.267L0.999999 141.303C0.999976 141.692 0.999956 142.042 1.02376 142.333C1.04925 142.645 1.10694 142.977 1.27248 143.302C1.51216 143.772 1.89461 144.154 2.36501 144.394L2.36504 144.394C2.68994 144.56 3.02141 144.617 3.33337 144.643C3.62468 144.667 3.97481 144.667 4.36389 144.667H4.4H107.6H107.636C108.025 144.667 108.375 144.667 108.667 144.643C108.979 144.617 109.31 144.56 109.635 144.394C110.105 144.155 110.488 143.772 110.728 143.302C110.893 142.977 110.951 142.645 110.976 142.333C111 142.042 111 141.692 111 141.303V141.267V44.6586C111 44.6355 111 44.6123 111 44.5891C111 44.2932 111.001 43.9952 110.931 43.7042Z" fill="white" stroke="black" stroke-width="2"/>
</svg>
