<svg width="116" height="148" viewBox="0 0 116 148" fill="none" xmlns="http://www.w3.org/2000/svg">
<path d="M69.5061 1.66675H6.2335C6.21753 1.66675 6.20158 1.66675 6.18565 1.66674C5.80708 1.6667 5.43839 1.66666 5.12615 1.69217C4.78326 1.72018 4.37866 1.78628 3.97152 1.99373C3.40704 2.28135 2.9481 2.74029 2.66048 3.30478C2.45303 3.71191 2.38693 4.11651 2.35891 4.4594C2.3334 4.77164 2.33345 5.14032 2.33349 5.5189C2.33349 5.53483 2.3335 5.55078 2.3335 5.56674V142.433L2.33349 142.481C2.33345 142.86 2.3334 143.229 2.35891 143.541C2.38693 143.884 2.45303 144.288 2.66048 144.695C2.9481 145.26 3.40704 145.719 3.97152 146.006C4.37866 146.214 4.78326 146.28 5.12615 146.308C5.43846 146.334 5.80724 146.333 6.18591 146.333H6.2335H109.767H109.814C110.193 146.333 110.562 146.334 110.874 146.308C111.217 146.28 111.622 146.214 112.029 146.006C112.593 145.719 113.052 145.26 113.34 144.695C113.547 144.288 113.613 143.884 113.641 143.541C113.667 143.229 113.667 142.86 113.667 142.481V142.433V45.8275C113.667 45.8027 113.667 45.7771 113.667 45.7509C113.668 45.4661 113.669 45.1074 113.584 44.7544C113.51 44.4483 113.389 44.1557 113.225 43.8872C113.035 43.5777 112.781 43.3248 112.579 43.1239C112.56 43.1054 112.542 43.0874 112.525 43.0698L72.2638 2.80903C72.2462 2.79145 72.2282 2.77333 72.2097 2.75477C72.0088 2.5528 71.7559 2.2985 71.4463 2.10883C71.1779 1.94434 70.8853 1.82313 70.5792 1.74964C70.2262 1.66489 69.8675 1.66585 69.5826 1.66661C69.5564 1.66668 69.5309 1.66675 69.5061 1.66675Z" stroke="black" stroke-width="3"/>
</svg>
