<svg width="40" height="40" viewBox="0 0 40 40" fill="none" xmlns="http://www.w3.org/2000/svg">
<path d="M20 26.6667L19.2929 27.3739L20 28.081L20.7071 27.3739L20 26.6667ZM21 6.66675C21 6.11446 20.5523 5.66675 20 5.66675C19.4477 5.66675 19 6.11446 19 6.66675L21 6.66675ZM9.29289 17.3739L19.2929 27.3739L20.7071 25.9596L10.7071 15.9596L9.29289 17.3739ZM20.7071 27.3739L30.7071 17.3739L29.2929 15.9596L19.2929 25.9596L20.7071 27.3739ZM21 26.6667L21 6.66675L19 6.66675L19 26.6667L21 26.6667Z" fill="#33363F"/>
<path d="M8.3335 35L31.6668 35" stroke="#33363F" stroke-width="2"/>
</svg>