<svg width="40" height="40" viewBox="0 0 40 40" fill="none" xmlns="http://www.w3.org/2000/svg">
<path fill-rule="evenodd" clip-rule="evenodd" d="M19.9987 12.1036C21.0949 10.9995 22.5094 10.6063 23.866 10.6259C27.1265 10.6731 30.4174 13.3339 30.4174 17.1883C30.4174 20.8959 28.046 23.9826 25.7005 26.0811C24.5138 27.1429 23.2966 27.9858 22.3081 28.5663C21.8142 28.8564 21.369 29.0859 21.0057 29.2457C20.8247 29.3253 20.6549 29.3917 20.5036 29.4397C20.372 29.4815 20.1865 29.532 20.0004 29.532C19.8144 29.532 19.6288 29.4815 19.4972 29.4397C19.3459 29.3917 19.1761 29.3253 18.9951 29.2457C18.6318 29.0859 18.1866 28.8564 17.6927 28.5663C16.7042 27.9858 15.487 27.1429 14.3003 26.0811C11.9548 23.9826 9.58344 20.8959 9.58344 17.1883C9.58344 13.343 12.8666 10.6259 16.1461 10.6259C17.4659 10.6259 18.894 11.0017 19.9987 12.1036ZM23.8434 12.1883C22.5957 12.1702 21.433 12.5938 20.6504 13.7676C20.5055 13.9849 20.2616 14.1154 20.0004 14.1155C19.7392 14.1155 19.4953 13.9849 19.3504 13.7676C18.5726 12.6009 17.3887 12.1884 16.1461 12.1884C13.6442 12.1884 11.1459 14.2889 11.1459 17.1883C11.1459 20.2255 13.1106 22.9201 15.3421 24.9166C16.4439 25.9024 17.5754 26.6854 18.484 27.219C18.9385 27.4859 19.3289 27.6855 19.6244 27.8155C19.7727 27.8808 19.888 27.9245 19.9696 27.9503C19.9812 27.954 19.9915 27.9571 20.0004 27.9597C20.0093 27.9571 20.0196 27.954 20.0312 27.9503C20.1128 27.9245 20.2281 27.8808 20.3765 27.8155C20.6719 27.6855 21.0623 27.4859 21.5169 27.219C22.4254 26.6854 23.557 25.9024 24.6587 24.9166C26.8902 22.9201 28.8549 20.2255 28.8549 17.1883C28.8549 14.298 26.3643 12.2248 23.8434 12.1883Z" fill="#040509"/>
</svg>
