<svg width="48" height="48" viewBox="0 0 48 48" fill="none" xmlns="http://www.w3.org/2000/svg">
<path d="M41 33.3891L27.3359 9.65938C26.9945 9.07801 26.507 8.59597 25.9219 8.26104C25.3367 7.9261 24.6742 7.7499 24 7.7499C23.3257 7.7499 22.6632 7.9261 22.0781 8.26104C21.4929 8.59597 21.0055 9.07801 20.664 9.65938L6.99997 33.3891C6.67143 33.9514 6.49829 34.5909 6.49829 35.2422C6.49829 35.8934 6.67143 36.533 6.99997 37.0953C7.33705 37.6802 7.82367 38.1649 8.40991 38.4996C8.99614 38.8343 9.66088 39.007 10.3359 39H37.664C38.3385 39.0065 39.0026 38.8335 39.5883 38.4988C40.1739 38.1641 40.66 37.6797 40.9968 37.0953C41.3259 36.5333 41.4995 35.8939 41.5001 35.2426C41.5006 34.5914 41.328 33.9517 41 33.3891ZM38.8328 35.8438C38.7137 36.047 38.5426 36.2148 38.3373 36.3301C38.1319 36.4455 37.8995 36.5041 37.664 36.5H10.3359C10.1004 36.5041 9.86805 36.4455 9.66267 36.3301C9.45729 36.2148 9.28627 36.047 9.16715 35.8438C9.05925 35.6611 9.00234 35.4528 9.00234 35.2406C9.00234 35.0285 9.05925 34.8202 9.16715 34.6375L22.8312 10.9078C22.9527 10.7056 23.1245 10.5382 23.3299 10.4221C23.5352 10.3059 23.7672 10.2448 24.0031 10.2448C24.239 10.2448 24.4709 10.3059 24.6763 10.4221C24.8816 10.5382 25.0534 10.7056 25.175 10.9078L38.839 34.6375C38.946 34.8207 39.0018 35.0293 39.0007 35.2415C38.9996 35.4536 38.9416 35.6616 38.8328 35.8438ZM22.75 26.5V20.25C22.75 19.9185 22.8817 19.6005 23.1161 19.3661C23.3505 19.1317 23.6684 19 24 19C24.3315 19 24.6494 19.1317 24.8839 19.3661C25.1183 19.6005 25.25 19.9185 25.25 20.25V26.5C25.25 26.8315 25.1183 27.1495 24.8839 27.3839C24.6494 27.6183 24.3315 27.75 24 27.75C23.6684 27.75 23.3505 27.6183 23.1161 27.3839C22.8817 27.1495 22.75 26.8315 22.75 26.5ZM25.875 32.125C25.875 32.4958 25.765 32.8584 25.559 33.1667C25.3529 33.475 25.0601 33.7154 24.7175 33.8573C24.3749 33.9992 23.9979 34.0363 23.6342 33.964C23.2705 33.8916 22.9364 33.7131 22.6741 33.4508C22.4119 33.1886 22.2333 32.8545 22.161 32.4908C22.0886 32.1271 22.1258 31.7501 22.2677 31.4075C22.4096 31.0649 22.6499 30.772 22.9583 30.566C23.2666 30.36 23.6291 30.25 24 30.25C24.4972 30.25 24.9742 30.4475 25.3258 30.7992C25.6774 31.1508 25.875 31.6277 25.875 32.125Z" fill="#FF5E5E"/>
</svg>
