<svg width="302" height="207" viewBox="0 0 302 207" fill="none" xmlns="http://www.w3.org/2000/svg">
<path d="M139.153 103.825C142.247 100.721 148.484 95.4443 148.679 99.169C148.923 103.825 142.817 115.832 148.679 110.441C154.541 105.05 161.624 95.4934 162.112 99.169C162.601 102.845 163.334 103.825 170.173 97.2085" stroke="black" stroke-width="2" stroke-linecap="round"/>
<path d="M20.4658 156.908C21.6068 158.46 25.2577 161.481 30.7342 161.152" stroke="black" stroke-width="2" stroke-linecap="round"/>
<path d="M89.1951 163.754C83.8324 166.683 68.2349 169.461 48.3345 157.508C47.9024 157.249 47.3421 157.336 47.0113 157.717C42.9327 162.406 32.0808 171.506 18.0011 172.653C13.7568 172.999 10.7448 170.874 15.6736 169.094C18.4119 168.105 20.4656 167.451 21.4239 166.492" stroke="black" stroke-width="2" stroke-linecap="round"/>
<path d="M13.4836 170.325C10.7453 171.603 7.18561 172.461 6.63796 170.051C5.9534 167.039 10.8822 167.587 12.799 166.081" stroke="black" stroke-width="2" stroke-linecap="round"/>
<path d="M6.22769 170.189C1.57273 171.558 -0.587599 167.435 3.48949 165.397C7.32302 163.48 10.6089 164.165 13.0733 161.29" stroke="black" stroke-width="2" stroke-linecap="round"/>
<path d="M2.11976 166.355C1.0701 165.442 -0.18036 163.096 3.21505 161.015C7.45932 158.414 27.3115 149.652 24.8471 142.669C24.1224 140.616 20.1921 140.753 16.9062 136.508C14.4656 133.356 16.9062 129.663 19.9183 131.716C20.6941 132.31 25.4769 135.413 27.9961 134.318C31.1166 132.961 41.3628 131.739 48.7423 140.91C48.8728 141.072 49.0457 141.194 49.2458 141.252C55.4117 143.029 68.6791 145.54 74.82 141.985" stroke="black" stroke-width="2" stroke-linecap="round"/>
<path d="M28.2705 147.051C29.9591 148.648 34.7054 149.241 37.7174 146.366" stroke="black" stroke-width="2" stroke-linecap="round"/>
<path d="M281.534 155.28C280.393 156.831 276.742 159.853 271.266 159.524" stroke="black" stroke-width="2" stroke-linecap="round"/>
<path d="M212.804 162.126C218.167 165.055 233.764 167.833 253.664 155.88C254.097 155.62 254.657 155.708 254.988 156.088C259.066 160.778 269.918 169.878 283.998 171.025C288.242 171.371 291.254 169.245 286.325 167.465C283.587 166.476 281.533 165.822 280.575 164.864" stroke="black" stroke-width="2" stroke-linecap="round"/>
<path d="M288.516 168.697C291.255 169.975 294.814 170.833 295.362 168.424C296.047 165.412 291.118 165.959 289.201 164.453" stroke="black" stroke-width="2" stroke-linecap="round"/>
<path d="M295.772 168.561C300.427 169.93 302.588 165.808 298.511 163.769C294.677 161.852 291.391 162.537 288.927 159.662" stroke="black" stroke-width="2" stroke-linecap="round"/>
<path d="M299.88 164.727C300.93 163.814 302.18 161.468 298.785 159.387C294.541 156.786 274.688 148.023 277.153 141.041C277.878 138.987 281.808 139.124 285.094 134.88C287.534 131.727 285.094 128.034 282.082 130.088C281.306 130.681 276.523 133.785 274.004 132.689C270.883 131.333 260.637 130.11 253.258 139.281C253.127 139.444 252.954 139.566 252.754 139.623C246.588 141.4 233.321 143.912 227.18 140.356" stroke="black" stroke-width="2" stroke-linecap="round"/>
<path d="M273.729 145.422C272.041 147.02 267.295 147.613 264.283 144.738" stroke="black" stroke-width="2" stroke-linecap="round"/>
<path d="M136.352 47.5954C137.385 59.3815 142.675 80.168 155.519 80.9736C169.049 81.8222 174.687 54.3842 174.687 47.3125" stroke="black" stroke-width="2" stroke-linecap="round"/>
<path d="M138.815 47.0384L134.981 46.4907" stroke="black" stroke-width="2" stroke-linecap="round"/>
<path d="M176.139 46.4907C180.291 47.5349 183.557 52.0723 173.591 60.7296" stroke="black" stroke-width="2" stroke-linecap="round"/>
<path d="M134.554 46.4907C130.935 46.9654 127.125 52.471 138.268 60.7296" stroke="black" stroke-width="2" stroke-linecap="round"/>
<ellipse cx="145.935" cy="48.8182" rx="2.46441" ry="2.3275" fill="black"/>
<circle cx="164.692" cy="48.8182" r="2.3275" fill="black"/>
<path d="M153.698 48.6814C153.698 52.8172 150.345 56.1699 146.209 56.1699C142.073 56.1699 138.721 52.8172 138.721 48.6814C138.721 44.5456 142.073 41.1929 146.209 41.1929C150.345 41.1929 153.698 44.5456 153.698 48.6814Z" stroke="black" stroke-width="2"/>
<path d="M171.77 48.6814C171.77 52.8326 168.463 56.1699 164.418 56.1699C160.373 56.1699 157.066 52.8326 157.066 48.6814C157.066 44.5302 160.373 41.1929 164.418 41.1929C168.463 41.1929 171.77 44.5302 171.77 48.6814Z" stroke="black" stroke-width="2"/>
<path d="M153.603 47.8599H156.888" stroke="black" stroke-width="2" stroke-linecap="round"/>
<path d="M152.273 53.0625C151.561 57.0101 151.482 63.5642 158.531 59.955" stroke="black" stroke-width="2" stroke-linecap="round"/>
<path d="M150.59 68.3965C152.096 67.5699 156.012 66.4128 159.626 68.3965" stroke="black" stroke-width="2" stroke-linecap="round"/>
<path d="M171.401 46.4907H176.056" stroke="black" stroke-width="2" stroke-linecap="round"/>
<path d="M134.059 23.6335C119.691 30.3988 126.389 42.2382 131.533 47.3123C132.431 46.6357 135.275 46.4666 136.584 46.4666C134.115 28.4256 143.413 23.6333 147.528 22.5058C159.034 20.5325 172.223 23.6335 174.468 32.654C177.149 43.4298 177.234 47.0304 179.318 47.3123C187.24 40.9979 186.072 28.8954 184.497 23.6335C186.551 17.7559 181.964 12.4518 179.318 9.25706C176.672 6.0623 169.416 0.236415 156.508 0.800349C130.972 3.33736 132.656 19.1232 134.059 23.6335Z" fill="black"/>
<path d="M141.28 37.4545C142.444 37.2479 145.935 36.9586 150.59 37.4545" stroke="black" stroke-width="2" stroke-linecap="round"/>
<path d="M160.448 38.0022C161.544 37.589 164.829 37.0104 169.211 38.0022" stroke="black" stroke-width="2" stroke-linecap="round"/>
<path d="M142.865 79.69C115.757 77.7731 109.076 73.9123 89.4697 120.901" stroke="black" stroke-width="2" stroke-linecap="round"/>
<path d="M169.13 78.7012C192.405 82.8083 203.632 68.5694 218.966 115.53" stroke="black" stroke-width="2" stroke-linecap="round"/>
<path d="M105.762 150.61C103.081 163.42 94.946 165.119 90.1511 164.236C89.4735 164.112 89.2289 163.313 89.6147 162.743C98.4744 149.632 84.0438 139.982 75.8066 141.833C75.2564 141.957 74.6564 141.678 74.5893 141.118C74.0052 136.245 82.2125 135.081 83.035 127.883C83.4731 124.049 83.9935 122.088 86.1839 121.996C95.9046 121.585 109.459 132.949 105.762 150.61Z" stroke="black" stroke-width="2" stroke-linecap="round"/>
<path d="M220.882 117.31C223.118 127.698 230.151 132.908 228.037 139.732C227.885 140.223 227.339 140.465 226.842 140.335C211.192 136.248 206.987 152.943 212.107 160.253C212.644 161.019 212.202 162.243 211.281 162.076C200.472 160.116 192.615 142.187 195.143 135.109C202.673 114.025 220.087 113.614 220.882 117.31Z" stroke="black" stroke-width="2" stroke-linecap="round"/>
<path d="M198.566 152.223C198.474 170.341 198.812 189.216 201.441 204.112" stroke="black" stroke-width="2" stroke-linecap="round"/>
<path d="M106.31 148.967C106.492 166.857 105.954 187.385 102.887 205.238" stroke="black" stroke-width="2" stroke-linecap="round"/>
<path d="M166.643 85.3822C167.861 81.9624 166.747 79.6611 165.666 79.2227C159.151 85.0102 149.269 82.8616 145.608 79.354C144.304 80.5116 145.063 83.9357 145.608 84.9877C152.664 92.5642 162.707 88.3201 166.643 85.3822Z" fill="black"/>
</svg>
