<svg width="424" height="334" viewBox="0 0 424 334" fill="none" xmlns="http://www.w3.org/2000/svg">
<path d="M19.0599 184.912C21.4197 184.912 23.3327 182.999 23.3327 180.639C23.3327 178.279 21.4197 176.366 19.0599 176.366C16.7001 176.366 14.7871 178.279 14.7871 180.639C14.7871 182.999 16.7001 184.912 19.0599 184.912Z" stroke="black" stroke-width="2"/>
<path d="M27.4341 181.074C36.0525 180.186 49.5756 181.236 51.174 187.902C52.7723 194.569 46.6688 197.007 43.4174 197.393C31.0383 199.36 14.624 198.434 14.624 187.902" stroke="black" stroke-width="2" stroke-linecap="round"/>
<path d="M24.32 191.155C24.8646 191.155 25.3061 190.714 25.3061 190.169C25.3061 189.625 24.8646 189.183 24.32 189.183C23.7754 189.183 23.334 189.625 23.334 190.169C23.334 190.714 23.7754 191.155 24.32 191.155Z" stroke="black" stroke-width="2"/>
<path d="M33.8506 190.169C33.8506 190.648 33.4043 191.155 32.7002 191.155C31.9961 191.155 31.5498 190.648 31.5498 190.169C31.5498 189.69 31.9961 189.183 32.7002 189.183C33.4043 189.183 33.8506 189.69 33.8506 190.169Z" stroke="black" stroke-width="2"/>
<path d="M41.0817 191.155C41.6263 191.155 42.0678 190.714 42.0678 190.169C42.0678 189.625 41.6263 189.183 41.0817 189.183C40.5372 189.183 40.0957 189.625 40.0957 190.169C40.0957 190.714 40.5372 191.155 41.0817 191.155Z" stroke="black" stroke-width="2"/>
<path d="M343.302 64.6141C345.48 64.6141 347.246 62.8483 347.246 60.67C347.246 58.4917 345.48 56.7258 343.302 56.7258C341.123 56.7258 339.357 58.4917 339.357 60.67C339.357 62.8483 341.123 64.6141 343.302 64.6141Z" stroke="black" stroke-width="2"/>
<path d="M351.05 57.2224C353.94 57.2224 362.199 57.2224 366.083 57.2224C369.23 57.2224 370.745 57.9185 370.745 62.7909C370.745 67.5248 370.706 73.657 370.745 76.1319C370.772 77.872 369.906 79.7977 367.016 80.0761C364.125 80.3545 352.526 80.1921 347.087 80.0761C345.067 80.0761 341.493 78.9309 341.493 74.2756V69.0552" stroke="black" stroke-width="2" stroke-linecap="round"/>
<path d="M349.053 65.4355L356.284 70.3657" stroke="black" stroke-width="2" stroke-linecap="round"/>
<path d="M356.285 70.3671L369.432 58.2061" stroke="black" stroke-width="2" stroke-linecap="round"/>
<path d="M359.616 67.4077L363.209 71.0232L366.801 74.6386" stroke="black" stroke-width="2" stroke-linecap="round"/>
<path d="M346.424 74.6386L351.724 67.4077" stroke="black" stroke-width="2" stroke-linecap="round"/>
<path d="M372.206 311.119C371.114 312.213 370.172 313.156 369.523 313.805C367.832 315.498 366.056 314.511 365.38 313.805L354.59 303.41C352.998 301.929 351.651 300.467 345.631 294.724C345.015 294.106 344.038 292.531 345.062 291.163C346.086 289.796 351.841 282.619 354.59 279.202C355.425 277.994 357.237 276.556 359.549 278.706C361.54 280.557 368.366 286.965 374.197 291.837" stroke="black" stroke-width="2" stroke-linecap="round"/>
<path d="M354.477 279.571C354.816 285.806 357.104 295.843 368.938 299.62" stroke="black" stroke-width="2" stroke-linecap="round"/>
<path d="M384.487 300.104C383.945 298.725 379.781 297.12 378.206 300.104C376.585 303.182 377.825 305.775 378.88 306.284C380.228 306.933 382.206 307.272 384.297 303.536" stroke="black" stroke-width="2" stroke-linecap="round"/>
<path d="M384.832 298.186C384.71 298.906 384.585 299.209 384.487 300.105C384.359 301.272 384.276 302.496 384.296 303.536C384.336 305.362 384.697 306.623 385.723 306.015C387.78 304.794 388.891 303.794 389.187 302.774C389.68 301.058 389.683 297.772 386.909 295.624C383.563 293.031 379.79 293.102 376.822 295.624C373.875 298.128 373.069 302.137 373.23 304.216C373.407 306.491 375.105 311.377 380.644 311.453C386.183 311.529 389.184 308.543 389.644 307.146" stroke="black" stroke-width="2" stroke-linecap="round"/>
<path d="M92.849 259.05C91.6674 254.489 87.7437 246.076 81.5041 248.92C75.2641 251.763 78.9039 256.858 81.5041 259.05C83.2536 260.235 87.015 261.503 88.0628 257.095C89.1107 252.688 84.6949 250.875 83.4538 252.83C82.7994 253.6 82.0602 255.531 84.3402 257.095" stroke="black" stroke-width="2" stroke-linecap="round"/>
<path d="M120.696 37.8154C120.406 36.1832 122.114 34.9275 123.585 35.6905L126.529 37.2164C127.697 37.8224 129.09 37.8144 130.251 37.1951L133.177 35.6356C134.64 34.8558 136.362 36.0919 136.091 37.7273L135.549 40.9981C135.334 42.2969 135.772 43.6184 136.72 44.532L139.107 46.8325C140.301 47.9827 139.657 50.0024 138.018 50.2502L134.74 50.7457C133.438 50.9425 132.317 51.7672 131.741 52.9511L130.291 55.9324C129.566 57.4231 127.446 57.4352 126.704 55.953L125.22 52.9884C124.63 51.8112 123.499 50.9994 122.195 50.8175L118.912 50.3596C117.27 50.1306 116.603 48.1184 117.784 46.9546L120.145 44.6269C121.082 43.7025 121.505 42.3761 121.275 41.0798L120.696 37.8154Z" stroke="black" stroke-width="2"/>
<path d="M222.184 184.883V212.821" stroke="black" stroke-width="2" stroke-linecap="round"/>
<path d="M243.22 188.17V214.793" stroke="black" stroke-width="2" stroke-linecap="round"/>
<path d="M194.019 309.155C187.073 310.019 170.812 313.209 167.251 319.695C166.182 321.642 164.942 326.377 168.533 329.75C172.123 333.123 178.685 332.236 181.516 331.371L198.026 324.722" stroke="black" stroke-width="2" stroke-linecap="round"/>
<path d="M288.675 260.204C275.714 260.621 218.471 288.334 191.47 302.138C189.17 317.349 198.873 328.271 204.012 331.831C230.927 324.017 286.166 308.181 291.81 307.347C297.455 306.514 303.046 302.486 305.136 300.575C319.77 283.489 308.969 268.973 301.74 263.85C296.593 260.204 292.15 260.092 288.675 260.204Z" fill="black"/>
<path d="M167.272 256.327C176.455 256.94 216.514 272.465 235.495 280.602L192.087 302.293C172.66 307.99 160.726 306.114 157.081 304.886C136.043 294.75 144.286 269.745 152.645 260.482C158.032 255.897 163.982 256.108 167.272 256.327Z" fill="black"/>
<path d="M269.476 312.109C275.215 314.867 278.319 318.481 279.892 321.444C283.264 329.162 277.209 333.8 270.297 331.619C266.477 330.414 265.577 329.606 263.553 327.928C262.527 327.077 257.732 322.621 252.258 317.359" stroke="black" stroke-width="2" stroke-linecap="round"/>
<path d="M159.65 187.402L163.323 254.15C163.615 259.451 167.998 263.601 173.308 263.601H283.178C288.701 263.601 293.178 259.124 293.178 253.601V185.322C293.178 179.746 288.618 175.248 283.043 175.323L169.5 176.854C163.815 176.93 159.337 181.725 159.65 187.402Z" fill="black"/>
<rect x="163.021" y="264.752" width="130.157" height="6.24488" rx="3.12244" fill="black"/>
<path d="M243.548 140.512C254.997 140.347 280.195 149.057 290.22 176.502" stroke="black" stroke-width="2" stroke-linecap="round"/>
<path d="M218.404 140.349C192.274 145.444 179.784 156.619 169.924 178.147" stroke="black" stroke-width="2" stroke-linecap="round"/>
<path d="M305.832 166.342L312.241 155.66" stroke="black" stroke-width="2" stroke-linecap="round"/>
<path d="M312.241 169.299L320.951 162.068" stroke="black" stroke-width="2" stroke-linecap="round"/>
<path d="M313.557 174.231C315.255 174.888 319.111 175.512 320.952 172.751" stroke="black" stroke-width="2" stroke-linecap="round"/>
<path d="M145.437 164.344L135.577 154.155" stroke="black" stroke-width="2" stroke-linecap="round"/>
<path d="M155.461 162.696L149.545 147.413" stroke="black" stroke-width="2" stroke-linecap="round"/>
<path d="M142.972 170.094L135.577 167.301" stroke="black" stroke-width="2" stroke-linecap="round"/>
<path d="M296.794 194.938C302.874 204.47 309.777 215.81 296.794 237.146" stroke="black" stroke-width="2" stroke-linecap="round"/>
<path d="M243.712 141.334C245.191 137.061 243.843 134.185 242.529 133.638C234.64 140.869 222.676 138.184 218.239 133.802C216.662 135.248 217.582 139.526 218.239 140.841C226.785 150.307 238.946 145.004 243.712 141.334Z" fill="black"/>
<path d="M208.708 167.628L209.371 166.611C213.092 160.9 220.333 158.619 226.655 161.168V161.168C232.331 163.457 238.834 161.87 242.817 157.223L247.985 151.194" stroke="black" stroke-width="2" stroke-linecap="round"/>
<path d="M157.269 200.987C154.804 206.793 151.879 220.872 159.899 230.732" stroke="black" stroke-width="2" stroke-linecap="round"/>
<path d="M266.372 74.1537C262.757 87.1365 260.949 88.2869 255.69 94.0388C255.69 88.3543 254.714 78.8129 254.714 74.8399C237.494 74.8399 222.962 67.8107 217.849 64.2961C218.032 76.2152 206.858 84.0084 206.858 84.0084C206.858 84.0084 208.461 88.8219 209.377 99.5949C210.109 108.213 208.003 106.548 206.858 104.638C203.561 94.0021 198.157 96.8443 195.867 99.5949C167.769 53.94 210.979 45.1186 219.222 45.959C225.45 40.6413 234.136 36.474 240.242 35.8627C262.264 33.6583 272.235 53.1026 266.372 74.1537Z" fill="black"/>
<path d="M207.243 112.764C210.201 130.823 230.056 143.809 244.384 129.18C258.712 114.55 255.844 87.7721 254.314 75.2764" stroke="black" stroke-width="2" stroke-linecap="round"/>
<path d="M195.542 98.4761C193.734 102.913 195.43 112.746 207.243 112.746" stroke="black" stroke-width="2" stroke-linecap="round"/>
<path d="M200.753 100.914C200.491 101.864 200.7 104.113 203.628 105.516" stroke="black" stroke-width="2" stroke-linecap="round"/>
<path d="M253.915 110.446C257.771 108.839 260.489 102.887 259.443 93.3552" stroke="black" stroke-width="2" stroke-linecap="round"/>
<path d="M232.223 121.293C236.002 122.279 235.763 119.566 238.632 117.185" stroke="black" stroke-width="2" stroke-linecap="round"/>
<ellipse cx="243.506" cy="98.3313" rx="2.46509" ry="2.46509" fill="black"/>
<ellipse cx="221.813" cy="98.6604" rx="2.46509" ry="2.46509" fill="black"/>
<path d="M216.445 93.0259C216.964 91.4985 219.202 88.673 224.005 89.5894" stroke="black" stroke-width="2" stroke-linecap="round"/>
<path d="M239.453 90.0662C240.599 89.0741 243.714 87.6851 247.013 90.0662" stroke="black" stroke-width="2" stroke-linecap="round"/>
<path d="M231.502 96.9702C231.119 100.216 230.859 106.797 232.88 107.159" stroke="black" stroke-width="2" stroke-linecap="round"/>
<path d="M326.21 246.045C370.089 258.206 448.906 272.175 413.145 230.762C401.861 219.641 385.208 206.604 358.42 195.1" stroke="black" stroke-width="2" stroke-linecap="round"/>
<path d="M373.704 161.08C400.984 143.605 444.928 107.505 402.463 102.904C359.998 98.3023 321.225 114.243 307.146 122.789" stroke="black" stroke-width="2" stroke-linecap="round"/>
<path d="M268.034 135.542C286.111 96.5936 315.363 15.8702 287.754 4.5637C253.243 -9.56946 208.543 31.1866 172.06 128.475" stroke="black" stroke-width="2" stroke-linecap="round"/>
<path d="M131.856 101.992C91.4286 79.8612 8.89747 45.8211 2.19243 86.7086C-4.51261 127.596 77.405 161.702 119.202 173.644" stroke="black" stroke-width="2" stroke-linecap="round"/>
<path d="M129.934 195.1C70.9365 225.174 -2.98671 266.767 37.96 288.445C54.7224 297.319 97.615 291.896 117.336 283.843" stroke="black" stroke-width="2" stroke-linecap="round"/>
</svg>
