<svg width="67" height="49" viewBox="0 0 67 49" fill="none" xmlns="http://www.w3.org/2000/svg">
<path d="M0 7.17073H60.0208C63.8753 7.17073 67 9.8461 67 13.1463V43.0244C67 46.3246 63.8753 49 60.0208 49H33.5H6.97917C3.12468 49 0 46.3246 0 43.0244V7.17073Z" fill="#FBBC1A"/>
<path d="M0 16.1341V40.6341C0 43.9344 3.12468 46.6098 6.97917 46.6098H60.0208C63.8753 46.6098 67 43.9344 67 40.6341V15.5366C67 12.2363 63.8753 9.56098 60.0208 9.56098H30.7083V12.5488C30.7083 14.5289 28.8335 16.1341 26.5208 16.1341H0Z" fill="url(#paint0_linear_548_1583)"/>
<path d="M0 4.78049C0 2.1403 2.49974 0 5.58333 0H25.125C28.2086 0 30.7083 2.1403 30.7083 4.78049V7.17073H0V4.78049Z" fill="#FBBC1A"/>
<defs>
<linearGradient id="paint0_linear_548_1583" x1="0" y1="0" x2="80.8454" y2="56.5754" gradientUnits="userSpaceOnUse">
<stop stop-color="#FFE69C"/>
<stop offset="1" stop-color="#FFC937"/>
</linearGradient>
</defs>
</svg>
