<svg width="27" height="32" viewBox="0 0 27 32" fill="none" xmlns="http://www.w3.org/2000/svg">
<path d="M1 18.1429V1.5C1 1.2643 1 1.14645 1.07322 1.07322C1.14645 1 1.2643 1 1.5 1H10.7909C11.0952 1 11.2473 1 11.369 1.07615C11.4907 1.1523 11.5572 1.28914 11.6903 1.56281L13.2264 4.72291C13.3594 4.99658 13.426 5.13341 13.5477 5.20956C13.6693 5.28571 13.8215 5.28571 14.1258 5.28571H25.5C25.7357 5.28571 25.8536 5.28571 25.9268 5.35894C26 5.43216 26 5.55001 26 5.78571V21.9286C26 22.1643 26 22.2821 25.9268 22.3553C25.8536 22.4286 25.7357 22.4286 25.5 22.4286H14.1258C13.8215 22.4286 13.6693 22.4286 13.5477 22.3524C13.426 22.2763 13.3594 22.1394 13.2264 21.8658L11.6903 18.7057C11.5572 18.432 11.4907 18.2952 11.369 18.219C11.2473 18.1429 11.0952 18.1429 10.7909 18.1429H1ZM1 18.1429V31" stroke="black" stroke-width="2" stroke-linecap="round"/>
</svg>
