<svg width="20" height="19" viewBox="0 0 20 19" fill="none" xmlns="http://www.w3.org/2000/svg">
<path fill-rule="evenodd" clip-rule="evenodd" d="M13.5219 7.42396C13.5219 10.2689 10.9273 12.5752 7.72678 12.5752C4.52625 12.5752 1.9317 10.2689 1.9317 7.42396C1.9317 4.57902 4.52625 2.27274 7.72678 2.27274C10.9273 2.27274 13.5219 4.57902 13.5219 7.42396ZM12.465 12.8498C11.1564 13.7539 9.51231 14.2923 7.72678 14.2923C3.4594 14.2923 0 11.2172 0 7.42396C0 3.6307 3.4594 0.555664 7.72678 0.555664C11.9942 0.555664 15.4536 3.6307 15.4536 7.42396C15.4536 9.01111 14.8479 10.4726 13.8308 11.6356L20 17.1194L18.634 18.3334L12.465 12.8498Z" fill="black"/>
</svg>
