<svg width="20" height="20" viewBox="0 0 20 20" fill="none" xmlns="http://www.w3.org/2000/svg">
<g clip-path="url(#clip0_368_1138)">
<path d="M6.25 19.5843H0.416667C0.30616 19.5843 0.200179 19.5404 0.122039 19.4623C0.0438987 19.3841 0 19.2781 0 19.1676V9.16764C0 9.05714 0.0438987 8.95116 0.122039 8.87302C0.200179 8.79487 0.30616 8.75098 0.416667 8.75098H6.25C6.36051 8.75098 6.46649 8.79487 6.54463 8.87302C6.62277 8.95116 6.66667 9.05714 6.66667 9.16764V19.1676C6.66667 19.2781 6.62277 19.3841 6.54463 19.4623C6.46649 19.5404 6.36051 19.5843 6.25 19.5843ZM0.833333 18.751H5.83333V9.58431H0.833333V18.751Z" fill="black"/>
<path d="M16.4583 18.7513H8.74992C7.97909 18.7513 6.57909 18.4196 5.95492 17.7963C5.87902 17.7177 5.83702 17.6125 5.83797 17.5032C5.83892 17.394 5.88274 17.2895 5.96 17.2122C6.03725 17.135 6.14175 17.0911 6.251 17.0902C6.36025 17.0892 6.4655 17.1312 6.54409 17.2071C6.93825 17.6013 8.07242 17.9188 8.74909 17.9188H16.4574C17.0316 17.9188 17.4991 17.4513 17.4991 16.8771C17.4991 16.5905 17.3824 16.3221 17.1699 16.1213C17.1122 16.0669 17.0712 15.9972 17.0519 15.9203C17.0325 15.8434 17.0355 15.7625 17.0606 15.6873C17.0856 15.6121 17.1316 15.5455 17.1933 15.4956C17.2549 15.4457 17.3295 15.4144 17.4083 15.4055C17.6618 15.3771 17.896 15.2566 18.0665 15.0669C18.2371 14.8771 18.332 14.6314 18.3333 14.3763C18.3333 14.0896 18.2166 13.8213 18.0041 13.6205C17.9464 13.5661 17.9054 13.4963 17.886 13.4194C17.8667 13.3425 17.8697 13.2617 17.8947 13.1865C17.9198 13.1112 17.9658 13.0447 18.0274 12.9948C18.089 12.9448 18.1636 12.9136 18.2424 12.9046C18.4958 12.8764 18.7299 12.7561 18.9003 12.5665C19.0707 12.3769 19.1655 12.1312 19.1666 11.8763C19.1666 11.488 18.9483 11.1346 18.5966 10.9546C18.5303 10.9214 18.4742 10.8711 18.434 10.8088C18.3938 10.7465 18.3711 10.6746 18.3682 10.6005C18.3653 10.5264 18.3824 10.453 18.4176 10.3877C18.4527 10.3225 18.5048 10.2679 18.5683 10.2296C18.9424 9.99797 19.1666 9.6013 19.1666 9.16797C19.1666 8.4788 18.6058 7.91797 17.9166 7.91797H12.0833C12.0159 7.91763 11.9497 7.90105 11.8901 7.86964C11.8306 7.83822 11.7795 7.7929 11.7412 7.73752C11.7029 7.68214 11.6786 7.61834 11.6702 7.55154C11.6619 7.48474 11.6698 7.4169 11.6933 7.3538C11.7016 7.3313 12.4999 5.21714 12.4999 3.7513C12.4999 2.38714 11.2899 1.2513 10.8333 1.2513C10.4741 1.2513 10.1733 1.38214 9.99992 1.47797V4.16797C9.99984 4.22811 9.98676 4.28752 9.96159 4.34214L7.46159 9.7588C7.42174 9.84453 7.35424 9.91438 7.26992 9.95714L6.43659 10.3738C6.38761 10.3983 6.3343 10.4128 6.2797 10.4167C6.2251 10.4205 6.17027 10.4136 6.11834 10.3963C6.06642 10.3789 6.01842 10.3516 5.97708 10.3157C5.93574 10.2798 5.90188 10.2361 5.87742 10.1871C5.85296 10.1382 5.83839 10.0849 5.83453 10.0302C5.83068 9.97565 5.83761 9.92082 5.85495 9.86889C5.87228 9.81697 5.89967 9.76897 5.93556 9.72763C5.97144 9.68629 6.01511 9.65243 6.06409 9.62797L6.76659 9.27714L9.16659 4.0763V1.2513C9.16659 1.12464 9.22409 1.00547 9.32325 0.925469C9.76135 0.602979 10.2893 0.425534 10.8333 0.417969C11.7974 0.417969 13.3333 1.9438 13.3333 3.7513C13.3333 4.8913 12.9249 6.31047 12.6708 7.08464H17.9166C19.0649 7.08464 19.9999 8.01964 19.9999 9.16797C19.9999 9.6938 19.8041 10.1871 19.4583 10.5638C19.8008 10.908 19.9999 11.3755 19.9999 11.8763C19.9996 12.2222 19.9032 12.5612 19.7215 12.8555C19.5398 13.1498 19.2799 13.3878 18.9708 13.543C19.1909 13.9851 19.2268 14.4965 19.0706 14.9651C18.9144 15.4337 18.5788 15.8213 18.1374 16.043C18.2785 16.3289 18.3445 16.646 18.3291 16.9644C18.3137 17.2829 18.2174 17.5922 18.0495 17.8631C17.8815 18.1341 17.6472 18.3578 17.3688 18.5132C17.0904 18.6686 16.7771 18.7505 16.4583 18.7513Z" fill="black"/>
</g>
<defs>
<clipPath id="clip0_368_1138">
<rect width="20" height="20" fill="white"/>
</clipPath>
</defs>
</svg>
