<svg width="48" height="48" viewBox="0 0 48 48" fill="none" xmlns="http://www.w3.org/2000/svg">
<path d="M37.75 11.5H31.5V10.25C31.5 9.25544 31.1049 8.30161 30.4017 7.59835C29.6984 6.89509 28.7446 6.5 27.75 6.5H20.25C19.2554 6.5 18.3016 6.89509 17.5983 7.59835C16.8951 8.30161 16.5 9.25544 16.5 10.25V11.5H10.25C9.91848 11.5 9.60054 11.6317 9.36612 11.8661C9.1317 12.1005 9 12.4185 9 12.75C9 13.0815 9.1317 13.3995 9.36612 13.6339C9.60054 13.8683 9.91848 14 10.25 14H11.5V36.5C11.5 37.163 11.7634 37.7989 12.2322 38.2678C12.7011 38.7366 13.337 39 14 39H34C34.663 39 35.2989 38.7366 35.7678 38.2678C36.2366 37.7989 36.5 37.163 36.5 36.5V14H37.75C38.0815 14 38.3995 13.8683 38.6339 13.6339C38.8683 13.3995 39 13.0815 39 12.75C39 12.4185 38.8683 12.1005 38.6339 11.8661C38.3995 11.6317 38.0815 11.5 37.75 11.5ZM19 10.25C19 9.91848 19.1317 9.60054 19.3661 9.36612C19.6005 9.1317 19.9185 9 20.25 9H27.75C28.0815 9 28.3995 9.1317 28.6339 9.36612C28.8683 9.60054 29 9.91848 29 10.25V11.5H19V10.25ZM34 36.5H14V14H34V36.5ZM21.5 20.25V30.25C21.5 30.5815 21.3683 30.8995 21.1339 31.1339C20.8995 31.3683 20.5815 31.5 20.25 31.5C19.9185 31.5 19.6005 31.3683 19.3661 31.1339C19.1317 30.8995 19 30.5815 19 30.25V20.25C19 19.9185 19.1317 19.6005 19.3661 19.3661C19.6005 19.1317 19.9185 19 20.25 19C20.5815 19 20.8995 19.1317 21.1339 19.3661C21.3683 19.6005 21.5 19.9185 21.5 20.25ZM29 20.25V30.25C29 30.5815 28.8683 30.8995 28.6339 31.1339C28.3995 31.3683 28.0815 31.5 27.75 31.5C27.4185 31.5 27.1005 31.3683 26.8661 31.1339C26.6317 30.8995 26.5 30.5815 26.5 30.25V20.25C26.5 19.9185 26.6317 19.6005 26.8661 19.3661C27.1005 19.1317 27.4185 19 27.75 19C28.0815 19 28.3995 19.1317 28.6339 19.3661C28.8683 19.6005 29 19.9185 29 20.25Z" fill="#FF5E5E"/>
</svg>
