<svg width="20" height="16" viewBox="0 0 18 13" fill="none" xmlns="http://www.w3.org/2000/svg">
<path fill-rule="evenodd" clip-rule="evenodd" d="M2.3215 6.81673e-08H3.1785C3.4791 -2.43183e-06 3.72155 -5.01145e-06 3.9189 0.01346C4.1218 0.027305 4.30125 0.0564926 4.47115 0.126868C4.87952 0.296025 5.20398 0.620475 5.37313 1.02885C5.4435 1.19875 5.4727 1.3782 5.48655 1.5811C5.5 1.77845 5.5 2.0209 5.5 2.3215V3.1785C5.5 3.4791 5.5 3.72158 5.48655 3.9189C5.4727 4.1218 5.4435 4.30125 5.37313 4.47115C5.20398 4.87952 4.87952 5.20398 4.47115 5.37313C4.30125 5.4435 4.1218 5.4727 3.9189 5.48655C3.72155 5.5 3.4791 5.5 3.1785 5.5H2.3215C2.0209 5.5 1.77845 5.5 1.5811 5.48655C1.3782 5.4727 1.19875 5.4435 1.02885 5.37313C0.620475 5.20398 0.296025 4.87952 0.126868 4.47115C0.0564926 4.30125 0.027305 4.1218 0.01346 3.9189C-5.01145e-06 3.72155 -2.43183e-06 3.4791 6.81673e-08 3.1785V2.3215C-2.43183e-06 2.0209 -5.01145e-06 1.77845 0.01346 1.5811C0.027305 1.3782 0.0564926 1.19875 0.126868 1.02885C0.296025 0.620475 0.620475 0.296025 1.02885 0.126868C1.19875 0.0564926 1.3782 0.027305 1.5811 0.01346C1.77845 -5.01145e-06 2.0209 -2.43183e-06 2.3215 6.81673e-08ZM1.62648 0.678575C1.4575 0.6901 1.3591 0.711675 1.28398 0.742775C1.03895 0.844275 0.844275 1.03895 0.742775 1.28398C0.711675 1.3591 0.6901 1.4575 0.678575 1.62648C0.66685 1.79845 0.666675 2.01815 0.666675 2.33332V3.16668C0.666675 3.48185 0.66685 3.70155 0.678575 3.87353C0.6901 4.0425 0.711675 4.1409 0.742775 4.21602C0.844275 4.46105 1.03895 4.65573 1.28398 4.75723C1.3591 4.78832 1.4575 4.8099 1.62648 4.82142C1.79845 4.83315 2.01815 4.83332 2.33332 4.83332H3.16668C3.48185 4.83332 3.70155 4.83315 3.87353 4.82142C4.0425 4.8099 4.1409 4.78832 4.21602 4.75723C4.46105 4.65573 4.65573 4.46105 4.75723 4.21602C4.78832 4.1409 4.8099 4.0425 4.82142 3.87353C4.83315 3.70155 4.83332 3.48185 4.83332 3.16668V2.33332C4.83332 2.01815 4.83315 1.79845 4.82142 1.62648C4.8099 1.4575 4.78832 1.3591 4.75723 1.28398C4.65573 1.03895 4.46105 0.844275 4.21602 0.742775C4.1409 0.711675 4.0425 0.6901 3.87353 0.678575C3.70155 0.66685 3.48185 0.666675 3.16668 0.666675H2.33332C2.01815 0.666675 1.79845 0.66685 1.62648 0.678575ZM2.3215 6.5H3.1785C3.4791 6.5 3.72155 6.5 3.9189 6.51345C4.1218 6.5273 4.30125 6.5565 4.47115 6.62687C4.87952 6.79602 5.20398 7.12047 5.37313 7.52885C5.4435 7.69875 5.4727 7.8782 5.48655 8.0811C5.5 8.27845 5.5 8.5209 5.5 8.8215V9.6785C5.5 9.9791 5.5 10.2216 5.48655 10.4189C5.4727 10.6218 5.4435 10.8013 5.37313 10.9712C5.20398 11.3795 4.87952 11.704 4.47115 11.8731C4.30125 11.9435 4.1218 11.9727 3.9189 11.9866C3.72155 12 3.4791 12 3.1785 12H2.3215C2.0209 12 1.77845 12 1.5811 11.9866C1.3782 11.9727 1.19875 11.9435 1.02885 11.8731C0.620475 11.704 0.296025 11.3795 0.126868 10.9712C0.0564926 10.8013 0.027305 10.6218 0.01346 10.4189C-5.01145e-06 10.2215 -2.43183e-06 9.9791 6.81673e-08 9.6785V8.8215C-2.43183e-06 8.5209 -5.01145e-06 8.27845 0.01346 8.0811C0.027305 7.8782 0.0564926 7.69875 0.126868 7.52885C0.296025 7.12047 0.620475 6.79602 1.02885 6.62687C1.19875 6.5565 1.3782 6.5273 1.5811 6.51345C1.77845 6.5 2.0209 6.5 2.3215 6.5ZM1.62648 7.17857C1.4575 7.1901 1.3591 7.21168 1.28398 7.24277C1.03895 7.34427 0.844275 7.53895 0.742775 7.78397C0.711675 7.8591 0.6901 7.9575 0.678575 8.12648C0.66685 8.29845 0.666675 8.51815 0.666675 8.83333V9.66667C0.666675 9.98185 0.66685 10.2015 0.678575 10.3735C0.6901 10.5425 0.711675 10.6409 0.742775 10.716C0.844275 10.9611 1.03895 11.1557 1.28398 11.2572C1.3591 11.2883 1.4575 11.3099 1.62648 11.3214C1.79845 11.3332 2.01815 11.3333 2.33332 11.3333H3.16668C3.48185 11.3333 3.70155 11.3332 3.87353 11.3214C4.0425 11.3099 4.1409 11.2883 4.21602 11.2572C4.46105 11.1557 4.65573 10.9611 4.75723 10.716C4.78832 10.6409 4.8099 10.5425 4.82142 10.3735C4.83315 10.2015 4.83332 9.98185 4.83332 9.66667V8.83333C4.83332 8.51815 4.83315 8.29845 4.82142 8.12648C4.8099 7.9575 4.78832 7.8591 4.75723 7.78397C4.65573 7.53895 4.46105 7.34427 4.21602 7.24277C4.1409 7.21168 4.0425 7.1901 3.87353 7.17857C3.70155 7.16685 3.48185 7.16667 3.16668 7.16667H2.33332C2.01815 7.16667 1.79845 7.16685 1.62648 7.17857ZM8.8215 6.81673e-08H9.6785C9.9791 -2.43183e-06 10.2215 -5.01145e-06 10.4189 0.01346C10.6218 0.027305 10.8013 0.0564926 10.9712 0.126868C11.3795 0.296025 11.704 0.620475 11.8731 1.02885C11.9435 1.19875 11.9727 1.3782 11.9866 1.5811C12 1.77845 12 2.0209 12 2.3215V3.1785C12 3.4791 12 3.72158 11.9866 3.9189C11.9727 4.1218 11.9435 4.30125 11.8731 4.47115C11.704 4.87952 11.3795 5.20398 10.9712 5.37313C10.8013 5.4435 10.6218 5.4727 10.4189 5.48655C10.2215 5.5 9.9791 5.5 9.6785 5.5H8.8215C8.5209 5.5 8.27845 5.5 8.0811 5.48655C7.8782 5.4727 7.69875 5.4435 7.52885 5.37313C7.12047 5.20398 6.79602 4.87952 6.62687 4.47115C6.5565 4.30125 6.5273 4.1218 6.51345 3.9189C6.5 3.72155 6.5 3.4791 6.5 3.1785V2.3215C6.5 2.0209 6.5 1.77845 6.51345 1.5811C6.5273 1.3782 6.5565 1.19875 6.62687 1.02885C6.79602 0.620475 7.12047 0.296025 7.52885 0.126868C7.69875 0.0564926 7.8782 0.027305 8.0811 0.01346C8.27845 -5.01145e-06 8.5209 -2.43183e-06 8.8215 6.81673e-08ZM8.12648 0.678575C7.9575 0.6901 7.8591 0.711675 7.78397 0.742775C7.53895 0.844275 7.34427 1.03895 7.24277 1.28398C7.21168 1.3591 7.1901 1.4575 7.17857 1.62648C7.16685 1.79845 7.16667 2.01815 7.16667 2.33332V3.16668C7.16667 3.48185 7.16685 3.70155 7.17857 3.87353C7.1901 4.0425 7.21168 4.1409 7.24277 4.21602C7.34427 4.46105 7.53895 4.65573 7.78397 4.75723C7.8591 4.78832 7.9575 4.8099 8.12648 4.82142C8.29845 4.83315 8.51815 4.83332 8.83333 4.83332H9.66667C9.98185 4.83332 10.2015 4.83315 10.3735 4.82142C10.5425 4.8099 10.6409 4.78832 10.716 4.75723C10.9611 4.65573 11.1557 4.46105 11.2572 4.21602C11.2883 4.1409 11.3099 4.0425 11.3214 3.87353C11.3332 3.70155 11.3333 3.48185 11.3333 3.16668V2.33332C11.3333 2.01815 11.3332 1.79845 11.3214 1.62648C11.3099 1.4575 11.2883 1.3591 11.2572 1.28398C11.1557 1.03895 10.9611 0.844275 10.716 0.742775C10.6409 0.711675 10.5425 0.6901 10.3735 0.678575C10.2015 0.66685 9.98185 0.666675 9.66667 0.666675H8.83333C8.51815 0.666675 8.29845 0.66685 8.12648 0.678575ZM8.8215 6.5H9.6785C9.9791 6.5 10.2215 6.5 10.4189 6.51345C10.6218 6.5273 10.8013 6.5565 10.9712 6.62687C11.3795 6.79602 11.704 7.12047 11.8731 7.52885C11.9435 7.69875 11.9727 7.8782 11.9866 8.0811C12 8.27845 12 8.5209 12 8.8215V9.6785C12 9.9791 12 10.2216 11.9866 10.4189C11.9727 10.6218 11.9435 10.8013 11.8731 10.9712C11.704 11.3795 11.3795 11.704 10.9712 11.8731C10.8013 11.9435 10.6218 11.9727 10.4189 11.9866C10.2215 12 9.9791 12 9.6785 12H8.8215C8.5209 12 8.27845 12 8.0811 11.9866C7.8782 11.9727 7.69875 11.9435 7.52885 11.8731C7.12047 11.704 6.79602 11.3795 6.62687 10.9712C6.5565 10.8013 6.5273 10.6218 6.51345 10.4189C6.5 10.2215 6.5 9.9791 6.5 9.6785V8.8215C6.5 8.5209 6.5 8.27845 6.51345 8.0811C6.5273 7.8782 6.5565 7.69875 6.62687 7.52885C6.79602 7.12047 7.12047 6.79602 7.52885 6.62687C7.69875 6.5565 7.8782 6.5273 8.0811 6.51345C8.27845 6.5 8.5209 6.5 8.8215 6.5ZM8.12648 7.17857C7.9575 7.1901 7.8591 7.21168 7.78397 7.24277C7.53895 7.34427 7.34427 7.53895 7.24277 7.78397C7.21168 7.8591 7.1901 7.9575 7.17857 8.12648C7.16685 8.29845 7.16667 8.51815 7.16667 8.83333V9.66667C7.16667 9.98185 7.16685 10.2015 7.17857 10.3735C7.1901 10.5425 7.21168 10.6409 7.24277 10.716C7.34427 10.9611 7.53895 11.1557 7.78397 11.2572C7.8591 11.2883 7.9575 11.3099 8.12648 11.3214C8.29845 11.3332 8.51815 11.3333 8.83333 11.3333H9.66667C9.98185 11.3333 10.2015 11.3332 10.3735 11.3214C10.5425 11.3099 10.6409 11.2883 10.716 11.2572C10.9611 11.1557 11.1557 10.9611 11.2572 10.716C11.2883 10.6409 11.3099 10.5425 11.3214 10.3735C11.3332 10.2015 11.3333 9.98185 11.3333 9.66667V8.83333C11.3333 8.51815 11.3332 8.29845 11.3214 8.12648C11.3099 7.9575 11.2883 7.8591 11.2572 7.78397C11.1557 7.53895 10.9611 7.34427 10.716 7.24277C10.6409 7.21168 10.5425 7.1901 10.3735 7.17857C10.2015 7.16685 9.98185 7.16667 9.66667 7.16667H8.83333C8.51815 7.16667 8.29845 7.16685 8.12648 7.17857Z" fill="white"/>
</svg>
