<svg width="70" height="70" viewBox="0 0 70 70" fill="none" xmlns="http://www.w3.org/2000/svg">
<path fill-rule="evenodd" clip-rule="evenodd" d="M36.9167 5.83325V24.2499L36.9167 24.3043V24.3044C36.9167 24.7284 36.9166 25.1405 36.9623 25.4804C37.0138 25.8636 37.1393 26.3009 37.5025 26.6641C37.8657 27.0273 38.303 27.1529 38.6862 27.2044C39.0261 27.2501 39.4383 27.25 39.8624 27.2499L39.9167 27.2499H58.3334V46.6666C58.3334 54.9162 58.3334 59.041 55.7706 61.6038C53.2078 64.1666 49.083 64.1666 40.8334 64.1666H29.1667C20.9172 64.1666 16.7924 64.1666 14.2296 61.6038C11.6667 59.041 11.6667 54.9162 11.6667 46.6666V23.3333C11.6667 15.0837 11.6667 10.9589 14.2296 8.39607C16.7924 5.83325 20.9172 5.83325 29.1667 5.83325H36.9167ZM38.9167 5.83325V24.2499C38.9167 24.7496 38.9189 25.0238 38.9444 25.2139L38.9454 25.2212L38.9527 25.2222C39.1429 25.2478 39.4171 25.2499 39.9167 25.2499H58.3334V25.2491C58.3334 22.8647 58.3334 21.6725 57.8894 20.6005C57.4453 19.5285 56.6023 18.6855 54.9163 16.9995L47.1672 9.25034C45.4812 7.56433 44.6382 6.72132 43.5662 6.27729C42.4942 5.83325 41.302 5.83325 38.9176 5.83325H38.9167ZM25.2501 37.9166C25.2501 37.3643 25.6978 36.9166 26.2501 36.9166H43.7501C44.3024 36.9166 44.7501 37.3643 44.7501 37.9166C44.7501 38.4689 44.3024 38.9166 43.7501 38.9166H26.2501C25.6978 38.9166 25.2501 38.4689 25.2501 37.9166ZM26.2501 48.5833C25.6978 48.5833 25.2501 49.031 25.2501 49.5833C25.2501 50.1355 25.6978 50.5833 26.2501 50.5833H37.9167C38.469 50.5833 38.9167 50.1355 38.9167 49.5833C38.9167 49.031 38.469 48.5833 37.9167 48.5833H26.2501Z" fill="#222222"/>
</svg>
